<svg width="80" height="80" viewBox="0 0 80 80" fill="none" xmlns="http://www.w3.org/2000/svg">
<path d="M58.1565 66.952L48.8125 57.608L44.5885 48.136L42.5405 49.032L46.1245 58.376V71.944H33.8365V58.376L37.4205 49.032L35.3725 48.136L31.1485 57.608L21.8045 66.952L13.2285 58.376L22.5725 49.032L32.0445 44.808L31.1485 42.76L21.8045 46.344H8.2365V34.056H21.8045L31.1485 37.64L32.0445 35.592L22.5725 31.368L13.2285 22.024L21.8045 13.448L31.1485 22.792L35.3725 32.264L37.4205 31.368L33.8365 22.024V8.45599H46.1245V22.024L42.5405 31.368L44.5885 32.264L48.8125 22.792L58.1565 13.448L66.7325 22.024L57.3885 31.368L47.9165 35.592L48.8125 37.64L58.1565 34.056H71.7245V46.344H58.1565L48.8125 42.76L47.9165 44.808L57.3885 49.032L66.7325 58.376L58.1565 66.952Z" fill="#C20000"/>
</svg>
